<svg id="Layer_1" data-name="Layer 1" xmlns="http://www.w3.org/2000/svg" viewBox="0 0 648 791.5"><defs><style>.cls-1{fill:#136671;}.cls-2{fill:#52b648;}.cls-3{fill:#3e8936;}.cls-4{fill:#fff;}.cls-5{fill:#fcdf1c;}</style></defs><title>Number_Pad</title><rect class="cls-1" width="648" height="791.5" rx="72"/><rect class="cls-2" x="36" y="36.34" width="576" height="720" rx="45"/><rect class="cls-3" x="82.48" y="82.82" width="135.97" height="135.97" rx="24.48"/><rect class="cls-3" x="450.51" y="82.82" width="135.97" height="135.97" rx="24.48"/><rect class="cls-3" x="266.49" y="82.82" width="135.97" height="135.97" rx="24.48"/><rect class="cls-4" x="72" y="72.34" width="135.97" height="135.97" rx="18"/><rect class="cls-4" x="440.03" y="72.34" width="135.97" height="135.97" rx="18"/><rect class="cls-4" x="256.01" y="72.34" width="135.97" height="135.97" rx="18"/><rect class="cls-3" x="82.48" y="252.6" width="135.97" height="135.97" rx="24.48"/><rect class="cls-3" x="450.51" y="252.6" width="135.97" height="135.97" rx="24.48"/><rect class="cls-3" x="266.49" y="252.6" width="135.97" height="135.97" rx="24.48"/><rect class="cls-4" x="72" y="242.13" width="135.97" height="135.97" rx="18"/><rect class="cls-4" x="440.03" y="242.13" width="135.97" height="135.97" rx="18"/><rect class="cls-4" x="256.01" y="242.13" width="135.97" height="135.97" rx="18"/><rect class="cls-3" x="82.48" y="424.45" width="135.97" height="135.97" rx="24.48"/><rect class="cls-3" x="450.51" y="424.45" width="135.97" height="135.97" rx="24.48"/><rect class="cls-3" x="266.49" y="424.45" width="135.97" height="135.97" rx="24.48"/><rect class="cls-4" x="72" y="413.98" width="135.97" height="135.97" rx="18"/><rect class="cls-4" x="440.03" y="413.98" width="135.97" height="135.97" rx="18"/><rect class="cls-4" x="256.01" y="413.98" width="135.97" height="135.97" rx="18"/><rect class="cls-3" x="82.48" y="594.41" width="135.97" height="135.97" rx="24.48"/><rect class="cls-3" x="450.51" y="594.41" width="135.97" height="135.97" rx="24.48"/><rect class="cls-3" x="266.49" y="594.41" width="135.97" height="135.97" rx="24.48"/><rect class="cls-5" x="72" y="583.93" width="135.97" height="135.97" rx="18"/><rect class="cls-5" x="440.03" y="583.93" width="135.97" height="135.97" rx="18"/><rect class="cls-4" x="256.01" y="583.93" width="135.97" height="135.97" rx="18"/><path d="M475.25,582.63a42.92,42.92,0,0,1,10.08,1.26,23.44,23.44,0,0,1,9.19,4.41l-8.65,10.53a13.33,13.33,0,0,0-4.94-2.74,24.69,24.69,0,0,0-5.68-1v14.31l8.65,2.52a19.84,19.84,0,0,1,9.49,5.9A15.28,15.28,0,0,1,497,628.17a19.45,19.45,0,0,1-1.71,8.37,18.38,18.38,0,0,1-4.68,6.12,22.63,22.63,0,0,1-6.94,4,34.7,34.7,0,0,1-8.37,1.89v6.3h-5.93v-6.3a44.52,44.52,0,0,1-11.84-1.62,25.39,25.39,0,0,1-10.4-5.67l9.54-10.71a12.93,12.93,0,0,0,5.67,4.1,25.88,25.88,0,0,0,7,1.48V620.88l-6.58-2q-6.84-2.16-10.39-6.07t-3.56-10.76a16.87,16.87,0,0,1,1.71-7.65,18.55,18.55,0,0,1,4.55-5.85,24,24,0,0,1,6.57-4,28.72,28.72,0,0,1,7.7-2v-6.3h5.93Zm-5.93,12.69a12.43,12.43,0,0,0-4.5,1.89,4.74,4.74,0,0,0-2,4.23,5.62,5.62,0,0,0,.82,3.24,6.6,6.6,0,0,0,1.88,1.85,7.56,7.56,0,0,0,2.17.94q1.07.27,1.62.45Zm5.93,40.59a19.88,19.88,0,0,0,2.75-.76,9.44,9.44,0,0,0,2.48-1.31,6.7,6.7,0,0,0,1.75-1.93,5.08,5.08,0,0,0,.67-2.66,5.4,5.4,0,0,0-.49-2.43,5.08,5.08,0,0,0-1.3-1.66,8.4,8.4,0,0,0-1.89-1.17c-.73-.33-1.48-.65-2.25-1l-1.72-.63Z" transform="translate(36 36.34)"/><path d="M102.34,87.25,89.56,98.5l-7.65-8.82L102.7,72.13h12.6v63.72h-13Z" transform="translate(36 36.34)"/><path d="M265.77,121.54,290.52,99.3a43.63,43.63,0,0,0,3.78-3.87,7.38,7.38,0,0,0,1.89-5,6.11,6.11,0,0,0-2.34-5.08,8.6,8.6,0,0,0-5.49-1.84,7.54,7.54,0,0,0-5.89,2.33,9.43,9.43,0,0,0-2.39,5.76l-13.5-1a22,22,0,0,1,2.07-8.6,18.08,18.08,0,0,1,4.77-6.08,20.18,20.18,0,0,1,7-3.64,29.71,29.71,0,0,1,8.68-1.21,26.32,26.32,0,0,1,8.1,1.21,18.87,18.87,0,0,1,6.57,3.6,16.38,16.38,0,0,1,4.36,6,20.73,20.73,0,0,1,1.58,8.37,22.42,22.42,0,0,1-.63,5.53,19.16,19.16,0,0,1-1.75,4.5,20.68,20.68,0,0,1-2.66,3.73,41.85,41.85,0,0,1-3.33,3.33L282,124h28.26v11.88H265.77Z" transform="translate(36 36.34)"/><path d="M465.67,97.23h4.41a26.27,26.27,0,0,0,3.69-.26,10.51,10.51,0,0,0,3.28-1,6.07,6.07,0,0,0,2.39-2.16,6.61,6.61,0,0,0,.9-3.64,6,6,0,0,0-2.29-4.78,8.64,8.64,0,0,0-5.63-1.88,7.82,7.82,0,0,0-7.92,5.93l-14.85-3.05a20.47,20.47,0,0,1,3.24-7.07A18,18,0,0,1,458,74.55a22.88,22.88,0,0,1,6.61-2.65,33.65,33.65,0,0,1,7.7-.85,31.7,31.7,0,0,1,8.14,1,19.93,19.93,0,0,1,6.89,3.24,16.41,16.41,0,0,1,4.73,5.53,16.83,16.83,0,0,1,1.75,7.92,14.84,14.84,0,0,1-2.79,9.09,12.7,12.7,0,0,1-8.1,4.86V103a12.44,12.44,0,0,1,5.08,1.71,13.59,13.59,0,0,1,3.74,3.33,14.59,14.59,0,0,1,2.34,4.5,17.25,17.25,0,0,1,.81,5.31,18.11,18.11,0,0,1-1.85,8.37,17.48,17.48,0,0,1-4.95,6,21.24,21.24,0,0,1-7.28,3.56,33.22,33.22,0,0,1-8.87,1.17,26.6,26.6,0,0,1-14.71-4q-6.18-4-8.15-12.51l14.22-3.33a9.58,9.58,0,0,0,2.93,5.39c1.46,1.33,3.64,2,6.52,2s5.11-.77,6.52-2.3a8.36,8.36,0,0,0,2.12-5.9,6.86,6.86,0,0,0-1.12-4.18,6.78,6.78,0,0,0-2.93-2.2,12.94,12.94,0,0,0-4.05-.86c-1.5-.09-3-.14-4.5-.14h-3.15Z" transform="translate(36 36.34)"/><path d="M107.31,292.31H79.51V281l26-39.6h14.76V281h8.2v11.34h-8.2v12.78h-13Zm0-33.3h-.17L93,281h14.3Z" transform="translate(36 36.34)"/><path d="M308.75,253.25H283.46l-.28,9.81a17.84,17.84,0,0,1,5.67-.72,26.43,26.43,0,0,1,8.91,1.44,19.7,19.7,0,0,1,7,4.18,18.93,18.93,0,0,1,4.55,6.66,22.78,22.78,0,0,1,1.62,8.78,23.87,23.87,0,0,1-1.85,9.63,20.58,20.58,0,0,1-5.09,7.15,22,22,0,0,1-7.69,4.46,29.63,29.63,0,0,1-9.68,1.53q-8.28,0-13.85-4.05t-7.66-12.24l14.13-3.24a9.11,9.11,0,0,0,2.88,5.53,8.43,8.43,0,0,0,5.86,2.12,9.05,9.05,0,0,0,6.88-2.7,9.54,9.54,0,0,0,2.57-6.84,9.41,9.41,0,0,0-1.31-5.18,9.83,9.83,0,0,0-3.42-3.24,14.31,14.31,0,0,0-4.72-1.66,30.87,30.87,0,0,0-5.23-.45,36.42,36.42,0,0,0-6.7.63,46.33,46.33,0,0,0-6.53,1.71l.72-35.19h38.53Z" transform="translate(36 36.34)"/><path d="M471.38,264.14c.72-.18,1.44-.33,2.17-.45a13.5,13.5,0,0,1,2.25-.18,20.14,20.14,0,0,1,8.18,1.62,19.08,19.08,0,0,1,6.31,4.41,20,20,0,0,1,4,6.61,23.17,23.17,0,0,1,1.43,8.15,20.77,20.77,0,0,1-6.88,15.84,22.6,22.6,0,0,1-7.56,4.45,28.4,28.4,0,0,1-18.68,0,22.67,22.67,0,0,1-7.51-4.45,20.77,20.77,0,0,1-6.88-15.84,28.94,28.94,0,0,1,.62-6.26,32.74,32.74,0,0,1,1.67-5.35,34.51,34.51,0,0,1,2.43-4.82q1.39-2.3,2.92-4.72l14-21.78h16.47Zm10.89,19.62a9.71,9.71,0,0,0-2.83-7.16,11.16,11.16,0,0,0-14.85,0,10.46,10.46,0,0,0,0,14.31,11.13,11.13,0,0,0,14.85,0A9.68,9.68,0,0,0,482.27,283.76Z" transform="translate(36 36.34)"/><path d="M112.18,426.18H80.68V413.76H127.3v11.88l-25.47,51.84H86.08Z" transform="translate(36 36.34)"/><path d="M266.67,430.23a16.83,16.83,0,0,1,1.66-7.7,15.56,15.56,0,0,1,4.6-5.49,20,20,0,0,1,6.79-3.28,32.28,32.28,0,0,1,16.56,0A19.66,19.66,0,0,1,303,417a16.3,16.3,0,0,1,4.59,5.49,16.46,16.46,0,0,1,1.71,7.7,14.13,14.13,0,0,1-2.84,8.91,15.14,15.14,0,0,1-8,5.22v.18a15.75,15.75,0,0,1,8.82,5.53,15.92,15.92,0,0,1,3.06,9.95,17.16,17.16,0,0,1-1.85,8.1,16.75,16.75,0,0,1-4.95,5.8,22.33,22.33,0,0,1-7.15,3.47,31.17,31.17,0,0,1-16.92,0,22.23,22.23,0,0,1-7.15-3.47,16.65,16.65,0,0,1-4.95-5.8,17,17,0,0,1-1.85-8.1,15.92,15.92,0,0,1,3.06-9.95,15.75,15.75,0,0,1,8.82-5.53v-.18a15.21,15.21,0,0,1-8-5.22A14.19,14.19,0,0,1,266.67,430.23Zm12.42,27.9a7.58,7.58,0,0,0,2.43,5.67,10.14,10.14,0,0,0,13,0,7.58,7.58,0,0,0,2.43-5.67,7.68,7.68,0,0,0-2.43-5.76,10.14,10.14,0,0,0-13,0A7.68,7.68,0,0,0,279.09,458.13Zm1.08-26a6.72,6.72,0,0,0,2.16,5,8.8,8.8,0,0,0,11.34,0,6.72,6.72,0,0,0,2.16-5,6.62,6.62,0,0,0-2.16-4.95,8.8,8.8,0,0,0-11.34,0A6.62,6.62,0,0,0,280.17,432.12Z" transform="translate(36 36.34)"/><path d="M472.65,454.71c-.72.18-1.45.33-2.16.45a13.76,13.76,0,0,1-2.25.18,20.17,20.17,0,0,1-8.2-1.62,18.93,18.93,0,0,1-6.3-4.41,19.58,19.58,0,0,1-4-6.62,22.68,22.68,0,0,1-1.45-8.14,21.18,21.18,0,0,1,1.85-9,21,21,0,0,1,5-6.88,22.79,22.79,0,0,1,7.51-4.46,28.57,28.57,0,0,1,18.68,0,22.62,22.62,0,0,1,7.56,4.46,21,21,0,0,1,5,6.88,21.18,21.18,0,0,1,1.85,9,29.46,29.46,0,0,1-.63,6.25,33.86,33.86,0,0,1-1.67,5.36,34.4,34.4,0,0,1-2.43,4.81q-1.4,2.29-2.93,4.73l-13.94,21.78H457.7Zm-10.9-19.62a9.69,9.69,0,0,0,2.84,7.15,11.13,11.13,0,0,0,14.85,0,10.43,10.43,0,0,0,0-14.31,11.16,11.16,0,0,0-14.85,0A9.71,9.71,0,0,0,461.75,435.09Z" transform="translate(36 36.34)"/><path d="M264.33,615.57a65.09,65.09,0,0,1,1-11.52,33.5,33.5,0,0,1,3.69-10.62,21.86,21.86,0,0,1,7.24-7.78q4.59-3,11.7-3t11.7,3a22.06,22.06,0,0,1,7.25,7.78,34,34,0,0,1,3.69,10.62,64.94,64.94,0,0,1,0,23A34,34,0,0,1,307,637.71a22.09,22.09,0,0,1-7.25,7.79q-4.59,3-11.7,3t-11.7-3a21.89,21.89,0,0,1-7.24-7.79,33.5,33.5,0,0,1-3.69-10.62A65.09,65.09,0,0,1,264.33,615.57Zm13.5,0q0,2.52.23,6a28.94,28.94,0,0,0,1.21,6.75,14.34,14.34,0,0,0,3,5.49,8.32,8.32,0,0,0,11.38,0,14,14,0,0,0,3.06-5.49A30,30,0,0,0,298,621.6c.14-2.34.22-4.35.22-6s-.08-3.69-.22-6a30,30,0,0,0-1.22-6.75,14,14,0,0,0-3.06-5.49,8.32,8.32,0,0,0-11.38,0,14.34,14.34,0,0,0-3,5.49,28.94,28.94,0,0,0-1.21,6.75Q277.84,613.05,277.83,615.57Z" transform="translate(36 36.34)"/><path d="M120.37,600.27a13.87,13.87,0,0,0-5.09-3.87,16.94,16.94,0,0,0-7-1.35,17.43,17.43,0,0,0-13.18,5.81,19.9,19.9,0,0,0-3.87,6.52,24.8,24.8,0,0,0,0,16.43,20.48,20.48,0,0,0,3.83,6.48,17.3,17.3,0,0,0,5.71,4.27,16.54,16.54,0,0,0,7.06,1.53,15.9,15.9,0,0,0,7.66-1.8,15.39,15.39,0,0,0,5.49-5L132.7,638a24.33,24.33,0,0,1-10.27,8.37,31.7,31.7,0,0,1-12.77,2.7,39.18,39.18,0,0,1-13.77-2.34A31.33,31.33,0,0,1,85,640a30.3,30.3,0,0,1-7.16-10.58,38.66,38.66,0,0,1,0-27.72A30.25,30.25,0,0,1,85,591.14a31.35,31.35,0,0,1,10.89-6.71,39.18,39.18,0,0,1,13.77-2.34,33.68,33.68,0,0,1,5.62.5,30.38,30.38,0,0,1,5.76,1.57,25.63,25.63,0,0,1,5.44,2.88,21.93,21.93,0,0,1,4.69,4.41Z" transform="translate(36 36.34)"/></svg>